{"title":"Die Antwoord - Ugly Boy [Music Video] 1080p [Sbyky]","uid":11579607,"size":71275915,"categoryP":"video","categoryS":"music_videos","magnet":"?xt=urn:btih:f9efe6b8e8c496fd7e0feb450ffac5624f9bd993&amp;dn=Die+Antwoord+-+Ugly+Boy+%5BMusic+Video%5D+1080p+%5BSbyky%5D&amp;tr=udp%3A%2F%2Ftracker.openbittorrent.com%3A80&amp;tr=udp%3A%2F%2Fopen.demonii.com%3A1337&amp;tr=udp%3A%2F%2Ftracker.coppersurfer.tk%3A6969&amp;tr=udp%3A%2F%2Fexodus.desync.com%3A6969","seeders":7,"leechers":1,"uploader":"Sbyky","files":1,"time":1417111798,"description":"General\nComplete name                            : Die Antwoord - Ugly Boy [Music Video] 1080p [Sbyky].mp4\nFormat                                   : MPEG-4\nFormat profile                           : Base Media\nCodec ID                                 : isom\nFile size                                : 68.0 MiB\nDuration                                 : 4mn 52s\nOverall bit rate mode                    : Variable\nOverall bit rate                         : 1 950 Kbps\nEncoded date                             : UTC 2014-11-14 22:10:55\nTagged date                              : UTC 2014-11-14 22:10:55\n\nVideo\nID                                       : 1\nFormat                                   : AVC\nFormat/Info                              : Advanced Video Codec\nFormat profile                           : &lt;a class=&quot;__cf_email__&quot; href=&quot;/cdn-cgi/l/email-protection&quot; data-cfemail=&quot;7a32131d123a364e544a&quot;&gt;[email&amp;#160;protected]&lt;/a&gt;&lt;script cf-hash='f9e31' type=&quot;text/javascript&quot;&gt;\n/* &lt;![CDATA[ */!function(){try{var t=&quot;currentScript&quot;in document?document.currentScript:function(){for(var t=document.getElementsByTagName(&quot;script&quot;),e=t.length;e--;)if(t[e].getAttribute(&quot;cf-hash&quot;))return t[e]}();if(t&amp;&amp;t.previousSibling){var e,r,n,i,c=t.previousSibling,a=c.getAttribute(&quot;data-cfemail&quot;);if(a){for(e=&quot;&quot;,r=parseInt(a.substr(0,2),16),n=2;a.length-n;n+=2)i=parseInt(a.substr(n,2),16)^r,e+=String.fromCharCode(i);e=document.createTextNode(e),c.parentNode.replaceChild(e,c)}}}catch(u){}}();/* ]]&gt; */&lt;/script&gt;\nFormat settings, CABAC                   : Yes\nFormat settings, ReFrames                : 3 frames\nCodec ID                                 : avc1\nCodec ID/Info                            : Advanced Video Coding\nDuration                                 : 4mn 52s\nBit rate                                 : 1 821 Kbps\nWidth                                    : 1 920 pixels\nHeight                                   : 1 080 pixels\nDisplay aspect ratio                     : 16:9\nFrame rate mode                          : Variable\nFrame rate                               : 23.976 fps\nMinimum frame rate                       : 23.974 fps\nMaximum frame rate                       : 23.981 fps\nColor space                              : YUV\nChroma subsampling                       : 4:2:0\nBit depth                                : 8 bits\nScan type                                : Progressive\nBits/(Pixel*Frame)                       : 0.037\nStream size                              : 63.4 MiB (93%)\nEncoded date                             : UTC 2014-11-14 22:10:55\nTagged date                              : UTC 2014-11-14 22:10:55\n\nAudio\nID                                       : 2\nFormat                                   : AAC\nFormat/Info                              : Advanced Audio Codec\nFormat profile                           : LC\nCodec ID                                 : 40\nDuration                                 : 4mn 52s\nBit rate mode                            : Variable\nBit rate                                 : 126 Kbps\nChannel(s)                               : 2 channels\nChannel positions                        : Front: L R\nSampling rate                            : 44.1 KHz\nCompression mode                         : Lossy\nStream size                              : 4.38 MiB (6%)\nEncoded date                             : UTC 2014-11-14 22:10:06\nTagged date                              : UTC 2014-11-14 22:10:06\n\nShared By Sbyky","torrent":{"xt":"urn:btih:f9efe6b8e8c496fd7e0feb450ffac5624f9bd993","amp;dn":"Die+Antwoord+-+Ugly+Boy+%5BMusic+Video%5D+1080p+%5BSbyky%5D","amp;tr":["udp%3A%2F%2Ftracker.openbittorrent.com%3A80","udp%3A%2F%2Fopen.demonii.com%3A1337","udp%3A%2F%2Ftracker.coppersurfer.tk%3A6969","udp%3A%2F%2Fexodus.desync.com%3A6969"],"infoHash":"f9efe6b8e8c496fd7e0feb450ffac5624f9bd993","infoHashBuffer":{"type":"Buffer","data":[249,239,230,184,232,196,150,253,126,15,235,69,15,250,197,98,79,155,217,147]},"announce":[],"urlList":[]}}